Patient4_TMGait_0pt4_02_left_21_GRF.mot
version=1
nRows=72
nColumns=19
inDegrees=no
endheader
time	F1x	F1y	F1z	M1x	M1y	M1z	F2x	F2y	F2z	M2x	M2y	M2z	EC1x	EC1y	EC1z	EC2x	EC2y	EC2z
28.2	3.8102	7.1156	-8.2425	-1.7238	8.324	9.1397	-8.2452	733.0873	-59.8353	284.4861	66.6952	822.6407	-0.0592	0.0182	-0.0073	-0.0462	0.0165	0.9585
28.2129	2.5398	5.2953	-5.4472	-1.3511	5.4735	6.7357	-9.1953	737.1635	-56.2564	286.1554	63.4219	825.7239	-0.0592	0.0182	-0.0073	-0.0462	0.0165	0.9585
28.2257	1.4962	3.7845	-3.1377	-1.0402	3.1284	4.7235	-9.8601	743.1618	-53.0603	288.5765	60.3908	830.3581	-0.0592	0.0182	-0.0073	-0.0462	0.0165	0.9585
28.2386	0.72416	2.667	-1.404	-0.80987	1.3808	3.2208	-10.2064	750.7171	-50.4452	291.612	57.7912	836.189	-0.0592	0.0182	-0.0073	-0.0462	0.0165	0.9585
28.2514	0.20518	1.9378	-0.23491	-0.66087	0.21244	2.228	-10.2407	759.0582	-48.4565	294.9719	55.6764	842.4553	-0.0592	0.0182	-0.0073	-0.0462	0.0165	0.9585
28.2643	-0.11273	1.5192	0.4772	-0.57612	-0.49286	1.6485	-9.9821	767.1697	-47.0239	298.2739	53.9998	848.149	-0.0592	0.0182	-0.0073	-0.0462	0.0165	0.9585
28.2771	-0.28571	1.3089	0.83773	-0.532	-0.85239	1.3611	-9.4498	773.9447	-46.0283	301.0968	52.6663	852.1655	-0.0592	0.0182	-0.0073	-0.0462	0.0165	0.9585
28.29	-0.37967	1.1878	0.96496	-0.49691	-0.9925	1.2238	-8.6639	778.3272	-45.3234	303.04	51.5485	853.4379	-0.0592	0.0182	-0.0073	-0.0462	0.0165	0.9585
28.3029	-0.44296	1.0465	0.95003	-0.43927	-1.0116	1.0843	-7.6334	779.524	-44.7802	303.8009	50.5277	851.1749	-0.0592	0.0182	-0.0073	-0.0462	0.0165	0.9585
28.3157	-0.51897	0.77555	0.87037	-0.32568	-0.99225	0.79544	-6.3561	777.2127	-44.2676	303.2538	49.4717	845.0846	-0.0592	0.0182	-0.0073	-0.0462	0.0165	0.9585
28.3286	-0.61829	0.26699	0.77818	-0.12428	-0.98168	0.21203	-4.855	771.6104	-43.6967	301.4746	48.2888	835.4577	-0.0592	0.0182	-0.0073	-0.0462	0.0165	0.9585
28.3414	-0.74351	-0.56346	0.71205	0.19003	-1.0074	-0.77489	-3.166	763.4588	-43.0237	298.7319	46.9308	823.1453	-0.0592	0.0182	-0.0073	-0.0462	0.0165	0.9585
28.3543	-0.8715	-1.7852	0.6869	0.63649	-1.0674	-2.2541	-1.3214	753.9011	-42.2902	295.4349	45.4333	809.419	-0.0592	0.0182	-0.0073	-0.0462	0.0165	0.9585
28.3671	-0.96135	-3.3789	0.69465	1.2066	-1.1353	-4.1932	0.64479	744.2192	-41.6178	292.0375	43.9189	795.6936	-0.0592	0.0182	-0.0073	-0.0462	0.0165	0.9585
28.38	-0.9356	-5.2136	0.7076	1.8559	-1.1528	-6.4231	2.7039	735.5464	-41.2046	288.9362	42.5908	783.2095	-0.0592	0.0182	-0.0073	-0.0462	0.0165	0.9585
28.3929	-0.68649	-6.991	0.67208	2.4796	-1.0229	-8.57	4.8418	728.716	-41.249	286.421	41.6539	772.8662	-0.0592	0.0182	-0.0073	-0.0462	0.0165	0.9585
28.4057	-0.081596	-8.1631	0.52904	2.8849	-0.6288	-9.9589	7.0436	724.1829	-41.883	284.6573	41.2543	765.1376	-0.0592	0.0182	-0.0073	-0.0462	0.0165	0.9585
28.4186	1.0518	-7.8845	0.19667	2.7713	0.18415	-9.5494	9.2653	722.0731	-43.1143	283.7039	41.4288	760.1485	-0.0592	0.0182	-0.0073	-0.0462	0.0165	0.9585
28.4314	2.8609	-4.979	-0.40772	1.7197	1.5688	-5.8985	11.4751	722.2065	-44.8396	283.5133	42.1004	757.7031	-0.0592	0.0182	-0.0073	-0.0462	0.0165	0.9585
28.4443	5.4641	2.0615	-1.3713	-0.80749	3.6636	2.8244	13.6047	724.0471	-46.8892	283.905	43.1363	757.2498	-0.0592	0.0182	-0.0073	-0.0462	0.0165	0.9585
28.4571	8.8589	14.948	-2.735	-5.4214	6.5164	18.7072	15.5687	726.64	-49.0557	284.5364	44.3717	757.8093	-0.0592	0.0182	-0.0073	-0.0462	0.0165	0.9585
28.47	12.8515	35.307	-4.4811	-12.705	10.0304	43.7275	17.313	728.6277	-51.1133	284.9044	45.6029	757.9834	-0.0592	0.0182	-0.0073	-0.0462	0.0165	0.9585
28.4829	16.9012	64.221	-6.4706	-23.0437	13.839	79.1902	18.8061	728.3525	-52.8059	284.3913	46.5799	756.0621	-0.0592	0.0182	-0.0073	-0.0462	0.0165	0.9585
28.4957	20.0131	101.4563	-8.3941	-36.3521	17.1993	124.7958	20.023	724.0527	-53.8527	282.3415	47.0243	750.2273	-0.0592	0.0182	-0.0073	-0.0462	0.0165	0.9585
28.5086	20.6118	144.425	-9.6925	-51.7014	18.8694	177.3681	20.9402	714.0878	-53.9909	278.1433	46.6789	738.798	-0.0592	0.0182	-0.0073	-0.0462	0.0165	0.9585
28.5214	17.3874	187.7856	-9.4892	-67.1453	17.3213	230.3981	21.5339	697.1785	-53.0306	271.3228	45.3668	720.4537	-0.0592	0.0182	-0.0073	-0.0462	0.0165	0.9585
28.5343	11.2943	225.1114	-6.7449	-80.3382	11.7371	276.0084	21.7974	672.7972	-50.9317	261.6903	43.0651	694.6328	-0.0592	0.0182	-0.0073	-0.0462	0.0165	0.9585
28.5471	4.676	253.3592	-1.9421	-90.2084	3.5647	310.2101	21.8155	641.4533	-47.8856	249.4371	39.9525	661.808	-0.0592	0.0182	-0.0073	-0.0462	0.0165	0.9585
28.56	-0.91347	273.9251	4.1342	-97.2727	-5.6919	334.4744	21.7169	604.4372	-44.3144	235.038	36.403	623.2514	-0.0592	0.0182	-0.0073	-0.0462	0.0165	0.9585
28.5729	-4.9254	290.5009	10.8002	-102.8827	-14.9801	353.2664	21.6618	563.3248	-40.6464	219.0811	32.7762	580.5289	-0.0592	0.0182	-0.0073	-0.0462	0.0165	0.9585
28.5857	-7.3557	307.1474	17.3525	-108.5317	-23.4702	371.5499	21.7271	519.6897	-37.043	202.165	29.2037	535.2433	-0.0592	0.0182	-0.0073	-0.0462	0.0165	0.9585
28.5986	-8.6271	327.0124	23.3852	-115.3764	-30.8127	393.2483	21.896	474.835	-33.4645	184.7973	25.6543	488.7507	-0.0592	0.0182	-0.0073	-0.0462	0.0165	0.9585
28.6114	-9.0745	351.66	28.4957	-124.0081	-36.6935	420.2275	22.0487	429.7141	-29.7568	167.3565	22.0193	442.059	-0.0592	0.0182	-0.0073	-0.0462	0.0165	0.9585
28.6243	-9.0085	381.4139	32.7028	-134.5472	-41.2527	452.9071	21.9981	385.0039	-25.8832	150.1005	18.3155	395.9044	-0.0592	0.0182	-0.0073	-0.0462	0.0165	0.9585
28.6371	-8.5581	415.9104	36.053	-146.8528	-44.6463	490.8379	21.5689	341.1866	-21.9398	133.2034	14.6825	350.7867	-0.0592	0.0182	-0.0073	-0.0462	0.0165	0.9585
28.65	-7.7012	454.3088	38.9175	-160.6005	-47.3055	533.0228	20.5661	298.7008	-18.1613	116.8124	11.3929	307.1704	-0.0592	0.0182	-0.0073	-0.0462	0.0165	0.9585
28.6629	-6.4955	495.2862	41.5395	-175.3036	-49.563	577.8938	18.915	258.0293	-14.7599	101.0953	8.6709	265.5189	-0.0592	0.0182	-0.0073	-0.0462	0.0165	0.9585
28.6757	-5.1241	537.2423	44.3646	-190.3804	-51.984	623.5912	16.567	219.7623	-11.8994	86.2662	6.6906	226.4167	-0.0592	0.0182	-0.0073	-0.0462	0.0165	0.9585
28.6886	-3.8762	578.909	47.5056	-205.3699	-54.8238	668.7011	13.6141	184.5307	-9.6216	72.57	5.4725	190.4536	-0.0592	0.0182	-0.0073	-0.0462	0.0165	0.9585
28.7014	-2.8849	619.4924	51.045	-219.9879	-58.2111	712.3506	10.2414	152.9507	-7.9149	60.2489	4.9537	158.2176	-0.0592	0.0182	-0.0073	-0.0462	0.0165	0.9585
28.7143	-2.2124	658.5302	54.6808	-234.0717	-61.8378	754.0575	6.6946	125.4343	-6.6844	49.4715	4.9645	130.0968	-0.0592	0.0182	-0.0073	-0.0462	0.0165	0.9585
28.7271	-1.8072	695.3616	58.2208	-247.3878	-65.4462	793.0927	3.2277	102.0432	-5.8205	40.2777	5.3117	106.1304	-0.0592	0.0182	-0.0073	-0.0462	0.0165	0.9585
28.74	-1.6417	729.0586	61.3529	-259.6046	-68.6741	828.4233	0.035964	82.5599	-5.1835	32.5919	5.7877	86.1077	-0.0592	0.0182	-0.0073	-0.0462	0.0165	0.9585
28.7529	-1.6725	758.5262	64.028	-270.3219	-71.4192	858.8376	-2.7033	66.4907	-4.668	26.2366	6.2285	69.5262	-0.0592	0.0182	-0.0073	-0.0462	0.0165	0.9585
28.7657	-1.7845	782.7793	66.1399	-279.1797	-73.5239	883.2362	-4.9386	53.2664	-4.1773	20.9959	6.5158	55.8399	-0.0592	0.0182	-0.0073	-0.0462	0.0165	0.9585
28.7786	-1.8489	801.0721	67.7816	-285.9014	-75.0238	900.8274	-6.5812	42.2794	-3.6717	16.6393	6.5786	44.4312	-0.0592	0.0182	-0.0073	-0.0462	0.0165	0.9585
28.7914	-1.6799	813.0768	68.9268	-290.3673	-75.8388	911.2433	-7.6001	33.013	-3.1207	12.9645	6.3645	34.7998	-0.0592	0.0182	-0.0073	-0.0462	0.0165	0.9585
28.8043	-1.1547	818.9111	69.6488	-292.6164	-76.0052	914.6597	-7.9279	25.0522	-2.5327	9.8116	5.8498	26.5227	-0.0592	0.0182	-0.0073	-0.0462	0.0165	0.9585
28.8171	-0.1336	819.0622	69.8678	-292.8267	-75.4185	911.6399	-7.5174	18.1938	-1.9303	7.0994	5.0364	19.3951	-0.0592	0.0182	-0.0073	-0.0462	0.0165	0.9585
28.83	1.4151	814.2715	69.6546	-291.2582	-74.1477	903.0583	-6.4345	12.4208	-1.3662	4.8207	4.0013	13.4014	-0.0592	0.0182	-0.0073	-0.0462	0.0165	0.9585
28.8429	3.473	805.429	69.0102	-288.2241	-72.224	889.931	-4.9717	7.8728	-0.87953	3.0302	2.9009	8.6665	-0.0592	0.0182	-0.0073	-0.0462	0.0165	0.9585
28.8557	5.9359	793.5088	68.1002	-284.0622	-69.8601	873.405	-3.5298	4.6466	-0.50517	1.7592	1.9216	5.3152	-0.0592	0.0182	-0.0073	-0.0462	0.0165	0.9585
28.8686	8.6792	779.656	66.9916	-279.1773	-67.1861	854.8055	-2.2736	2.5791	-0.25684	0.94842	1.1504	3.1625	-0.0592	0.0182	-0.0073	-0.0462	0.0165	0.9585
28.8814	11.5515	765.1624	65.8568	-274.0241	-64.4322	835.6199	-1.3212	1.4475	-0.11819	0.50842	0.61631	2.0004	-0.0592	0.0182	-0.0073	-0.0462	0.0165	0.9585
28.8943	14.4133	751.3369	64.7568	-269.0662	-61.723	817.344	-0.64415	0.99078	-0.065451	0.337	0.29015	1.5411	-0.0592	0.0182	-0.0073	-0.0462	0.0165	0.9585
28.9071	17.128	739.337	63.8312	-264.7067	-59.2524	801.2937	-0.22041	0.98303	-0.068732	0.34338	0.12846	1.5566	-0.0592	0.0182	-0.0073	-0.0462	0.0165	0.9585
28.92	19.5821	730.0436	63.1071	-261.2511	-57.0974	788.4539	-0.0060773	1.2262	-0.09899	0.4502	0.081346	1.8413	-0.0592	0.0182	-0.0073	-0.0462	0.0165	0.9585
28.9329	21.6742	723.9886	62.6405	-258.8831	-55.3465	779.4204	0.072346	1.5707	-0.1426	0.5987	0.10716	2.2305	-0.0592	0.0182	-0.0073	-0.0462	0.0165	0.9585
28.9457	23.3555	721.3731	62.3752	-257.6735	-53.9627	774.3944	0.033496	1.9182	-0.18643	0.74718	0.17859	2.6227	-0.0592	0.0182	-0.0073	-0.0462	0.0165	0.9585
28.9586	24.6232	722.0511	62.2985	-257.5702	-52.9321	773.1893	-0.072294	2.1491	-0.22938	0.85154	0.27594	2.8625	-0.0592	0.0182	-0.0073	-0.0462	0.0165	0.9585
28.9714	25.5226	725.5962	62.355	-258.4233	-52.1859	775.2977	-0.24884	2.2077	-0.26314	0.88321	0.39055	2.8996	-0.0592	0.0182	-0.0073	-0.0462	0.0165	0.9585
28.9843	26.1393	731.3527	62.5444	-260.0016	-51.6992	779.9767	-0.44613	1.9771	-0.28121	0.7987	0.49903	2.5776	-0.0592	0.0182	-0.0073	-0.0462	0.0165	0.9585
28.9971	26.594	738.5211	62.8392	-262.0276	-51.4125	786.3331	-0.67592	1.359	-0.27403	0.55835	0.58946	1.7829	-0.0592	0.0182	-0.0073	-0.0462	0.0165	0.9585
29.01	27.0274	746.2568	63.2542	-264.2105	-51.3039	793.4045	-0.88654	0.24763	-0.24165	0.12442	0.64101	0.37212	-0.0592	0.0182	-0.0073	-0.0462	0.0165	0.9585
29.0229	27.5411	753.7272	63.7786	-266.2666	-51.3348	800.2483	-1.0433	-1.4326	-0.17633	-0.53014	0.62608	-1.7426	-0.0592	0.0182	-0.0073	-0.0462	0.0165	0.9585
29.0357	28.2431	760.1155	64.431	-267.9184	-51.4976	805.9432	-1.0904	-3.6971	-0.063939	-1.4092	0.50749	-4.5734	-0.0592	0.0182	-0.0073	-0.0462	0.0165	0.9585
29.0486	29.1566	764.6921	65.1794	-268.9193	-51.7548	809.6843	-0.91426	-6.4235	0.10099	-2.464	0.24285	-7.9705	-0.0592	0.0182	-0.0073	-0.0462	0.0165	0.9585
29.0614	30.2857	766.8593	65.9968	-269.0662	-52.0791	810.818	-0.41695	-9.2657	0.31555	-3.5611	-0.20243	-11.4922	-0.0592	0.0182	-0.0073	-0.0462	0.0165	0.9585
29.0743	31.556	766.1066	66.8267	-268.1816	-52.4308	808.8312	0.55401	-11.593	0.57093	-4.4542	-0.8743	-14.3614	-0.0592	0.0182	-0.0073	-0.0462	0.0165	0.9585
29.0871	32.8987	761.9802	67.6409	-266.1021	-52.8009	803.295	2.1155	-12.3147	0.83853	-4.7302	-1.7839	-15.2036	-0.0592	0.0182	-0.0073	-0.0462	0.0165	0.9585
29.1	34.2205	754.1611	68.3919	-262.7111	-53.1698	793.9355	4.3759	-9.8801	1.0764	-3.7956	-2.9094	-12.0831	-0.0592	0.0182	-0.0073	-0.0462	0.0165	0.9585
29.1129	35.4343	742.4954	69.0304	-257.9469	-53.5181	780.6701	7.3058	-2.2041	1.207	-0.85631	-4.1372	-2.3885	-0.0592	0.0182	-0.0073	-0.0462	0.0165	0.9585
